<svg width="48" height="36" viewBox="0 0 48 36" fill="none" xmlns="http://www.w3.org/2000/svg">
<path d="M8.04561 35.0285C5.85633 35.0285 3.98632 34.244 2.43558 32.675C0.884835 31.106 0.0729761 29.2087 0 26.9829C0 26.6545 0.018244 26.3261 0.054732 25.9977C0.0912201 25.6693 0.145952 25.3409 0.218928 25.0125L4.81642 6.62258C5.32725 4.65222 6.36716 3.05587 7.93615 1.83352C9.50513 0.611174 11.293 0 13.2999 0H34.6454C36.6522 0 38.4401 0.611174 40.0091 1.83352C41.5781 3.05587 42.618 4.65222 43.1289 6.62258L47.7263 25.0125C47.7993 25.3409 47.8632 25.6785 47.9179 26.0251C47.9726 26.3717 48 26.7092 48 27.0376C48 29.2634 47.2064 31.1517 45.6192 32.7024C44.0319 34.2531 42.1254 35.0285 39.8997 35.0285C38.3672 35.0285 36.9441 34.6271 35.6306 33.8244C34.317 33.0217 33.3318 31.927 32.675 30.5405L31.1425 27.366C30.9601 27.0011 30.6864 26.7275 30.3216 26.545C29.9567 26.3626 29.5735 26.2714 29.1722 26.2714H18.7731C18.3717 26.2714 17.9886 26.3626 17.6237 26.545C17.2588 26.7275 16.9852 27.0011 16.8027 27.366L15.2702 30.5405C14.6135 31.927 13.6283 33.0217 12.3147 33.8244C11.0011 34.6271 9.57811 35.0285 8.04561 35.0285ZM8.20981 30.6499C8.90308 30.6499 9.5325 30.4675 10.0981 30.1026C10.6636 29.7377 11.0924 29.2452 11.3843 28.6249L12.9168 25.5051C13.4641 24.374 14.2668 23.4892 15.325 22.8506C16.3831 22.2121 17.5325 21.8928 18.7731 21.8928H29.1722C30.4128 21.8928 31.5621 22.2212 32.6203 22.878C33.6785 23.5348 34.4994 24.4105 35.0832 25.5051L36.6157 28.6249C36.9076 29.2452 37.3364 29.7377 37.9019 30.1026C38.4675 30.4675 39.0969 30.6499 39.7902 30.6499C40.8119 30.6499 41.6876 30.3124 42.4173 29.6374C43.1471 28.9624 43.5302 28.114 43.5667 27.0924C43.5667 27.1288 43.5302 26.7822 43.4572 26.0525L38.8597 7.71722C38.6043 6.73204 38.0935 5.9293 37.3273 5.30901C36.561 4.68871 35.667 4.37856 34.6454 4.37856H13.2999C12.2782 4.37856 11.3751 4.68871 10.5906 5.30901C9.80616 5.9293 9.30445 6.73204 9.08552 7.71722L4.48803 26.0525C4.41505 26.2714 4.37856 26.5998 4.37856 27.0376C4.37856 28.0593 4.75257 28.9168 5.50057 29.61C6.24857 30.3033 7.15165 30.6499 8.20981 30.6499ZM27.2566 15.325C27.8769 15.325 28.3968 15.1152 28.8164 14.6956C29.236 14.2759 29.4458 13.756 29.4458 13.1357C29.4458 12.5154 29.236 11.9954 28.8164 11.5758C28.3968 11.1562 27.8769 10.9464 27.2566 10.9464C26.6363 10.9464 26.1163 11.1562 25.6967 11.5758C25.2771 11.9954 25.0673 12.5154 25.0673 13.1357C25.0673 13.756 25.2771 14.2759 25.6967 14.6956C26.1163 15.1152 26.6363 15.325 27.2566 15.325ZM31.6351 10.9464C32.2554 10.9464 32.7754 10.7366 33.195 10.317C33.6146 9.89738 33.8244 9.37742 33.8244 8.75713C33.8244 8.13683 33.6146 7.61688 33.195 7.19726C32.7754 6.77765 32.2554 6.56785 31.6351 6.56785C31.0148 6.56785 30.4949 6.77765 30.0753 7.19726C29.6556 7.61688 29.4458 8.13683 29.4458 8.75713C29.4458 9.37742 29.6556 9.89738 30.0753 10.317C30.4949 10.7366 31.0148 10.9464 31.6351 10.9464ZM31.6351 19.7035C32.2554 19.7035 32.7754 19.4937 33.195 19.0741C33.6146 18.6545 33.8244 18.1346 33.8244 17.5143C33.8244 16.894 33.6146 16.374 33.195 15.9544C32.7754 15.5348 32.2554 15.325 31.6351 15.325C31.0148 15.325 30.4949 15.5348 30.0753 15.9544C29.6556 16.374 29.4458 16.894 29.4458 17.5143C29.4458 18.1346 29.6556 18.6545 30.0753 19.0741C30.4949 19.4937 31.0148 19.7035 31.6351 19.7035ZM36.0137 15.325C36.634 15.325 37.1539 15.1152 37.5735 14.6956C37.9932 14.2759 38.203 13.756 38.203 13.1357C38.203 12.5154 37.9932 11.9954 37.5735 11.5758C37.1539 11.1562 36.634 10.9464 36.0137 10.9464C35.3934 10.9464 34.8734 11.1562 34.4538 11.5758C34.0342 11.9954 33.8244 12.5154 33.8244 13.1357C33.8244 13.756 34.0342 14.2759 34.4538 14.6956C34.8734 15.1152 35.3934 15.325 36.0137 15.325ZM16.3101 18.6089C16.7845 18.6089 17.1767 18.4538 17.4869 18.1437C17.797 17.8335 17.9521 17.4413 17.9521 16.9669V14.7777H20.1414C20.6157 14.7777 21.008 14.6226 21.3181 14.3124C21.6283 14.0023 21.7834 13.61 21.7834 13.1357C21.7834 12.6613 21.6283 12.2691 21.3181 11.959C21.008 11.6488 20.6157 11.4937 20.1414 11.4937H17.9521V9.30445C17.9521 8.8301 17.797 8.43786 17.4869 8.12771C17.1767 7.81756 16.7845 7.66249 16.3101 7.66249C15.8358 7.66249 15.4436 7.81756 15.1334 8.12771C14.8233 8.43786 14.6682 8.8301 14.6682 9.30445V11.4937H12.4789C12.0046 11.4937 11.6123 11.6488 11.3022 11.959C10.992 12.2691 10.8369 12.6613 10.8369 13.1357C10.8369 13.61 10.992 14.0023 11.3022 14.3124C11.6123 14.6226 12.0046 14.7777 12.4789 14.7777H14.6682V16.9669C14.6682 17.4413 14.8233 17.8335 15.1334 18.1437C15.4436 18.4538 15.8358 18.6089 16.3101 18.6089Z" fill="#FDFDFD"/>
</svg>
