<svg width="24" height="25" viewBox="0 0 24 25" fill="none" xmlns="http://www.w3.org/2000/svg">
<path d="M0.750031 22.5V9.23077C0.750031 8.80144 0.846068 8.39472 1.03814 8.01059C1.23022 7.62647 1.49572 7.31013 1.83464 7.06158L10.3731 0.628902C10.8469 0.267352 11.3884 0.0865784 11.9977 0.0865784C12.6069 0.0865784 13.15 0.267352 13.6269 0.628902L22.1653 7.06158C22.5043 7.31013 22.7698 7.62647 22.9618 8.01059C23.1539 8.39472 23.25 8.80144 23.25 9.23077V22.5C23.25 23.1134 23.0283 23.6418 22.585 24.085C22.1418 24.5283 21.6134 24.75 21 24.75H16.2115C15.8274 24.75 15.5054 24.62 15.2455 24.3601C14.9857 24.1003 14.8558 23.7783 14.8558 23.3942V16.0673C14.8558 15.6831 14.7258 15.3611 14.466 15.1013C14.2061 14.8414 13.8841 14.7115 13.5 14.7115H10.5C10.1159 14.7115 9.79388 14.8414 9.53403 15.1013C9.27416 15.3611 9.14422 15.6831 9.14422 16.0673V23.3942C9.14422 23.7783 9.01429 24.1003 8.75444 24.3601C8.49459 24.62 8.17261 24.75 7.78848 24.75H2.99999C2.38654 24.75 1.85819 24.5283 1.41494 24.085C0.971668 23.6418 0.750031 23.1134 0.750031 22.5Z" fill="white"/>
</svg>
