<svg width="24" height="23" viewBox="0 0 24 23" fill="none" xmlns="http://www.w3.org/2000/svg">
<path d="M12 18.5326L6.16444 22.0518C5.94714 22.1788 5.72936 22.2321 5.51111 22.212C5.29284 22.1917 5.09524 22.1182 4.91831 21.9913C4.74141 21.8643 4.60489 21.6985 4.50874 21.4937C4.41256 21.2889 4.39718 21.0624 4.46258 20.8144L6.01159 14.1884L0.859687 9.72884C0.667387 9.56154 0.544799 9.3678 0.491924 9.14762C0.439049 8.92743 0.452987 8.71349 0.533737 8.50581C0.614512 8.29811 0.730862 8.1284 0.882787 7.99668C1.03471 7.86495 1.2424 7.7789 1.50585 7.73852L8.30486 7.1443L10.9443 0.887576C11.0404 0.654901 11.1861 0.482786 11.3813 0.371236C11.5765 0.259711 11.7827 0.203949 12 0.203949C12.2173 0.203949 12.4235 0.259711 12.6188 0.371236C12.8139 0.482786 12.9596 0.654901 13.0557 0.887576L15.6951 7.1443L22.4941 7.73852C22.7576 7.7789 22.9653 7.86495 23.1172 7.99668C23.2691 8.1284 23.3855 8.29811 23.4663 8.50581C23.547 8.71349 23.5609 8.92743 23.5081 9.14762C23.4552 9.3678 23.3326 9.56154 23.1403 9.72884L17.9884 14.1884L19.5374 20.8144C19.6028 21.0624 19.5874 21.2889 19.4913 21.4937C19.3951 21.6985 19.2586 21.8643 19.0817 21.9913C18.9048 22.1182 18.7072 22.1917 18.4889 22.212C18.2706 22.2321 18.0529 22.1788 17.8356 22.0518L12 18.5326Z" fill="white"/>
</svg>
